<svg xmlns="http://www.w3.org/2000/svg" viewBox="0 0 150 86.6969"><defs><style>.cls-1{fill:#fff;}</style></defs><title>Asset 1</title><g id="Layer_2" data-name="Layer 2"><g id="Contactless"><path class="cls-1" d="M0,.00064Q74.99478-.00032,150,0V86.6969H0ZM131.70216,70.53579c-.20091-.04152-.331-.0678-.46087-.09533a16.91562,16.91562,0,0,1-6.11285-2.34736A12.67294,12.67294,0,0,1,120.91889,62.93c-.64383-1.32713-1.21387-2.69115-1.88807-4.00207a9.38531,9.38531,0,0,0-1.56709-2.4819c-1.35684-1.32342-2.86548-2.494-4.33755-3.69574-1.74481-1.42436-3.51526-2.81735-5.27855-4.219-.6775-.53854-1.36515-1.06433-2.04942-1.59431-2.29454-1.77716-4.602-3.538-6.87923-5.337q-1.67293-1.32156-3.25282-2.75969c-1.34475-1.2259-1.60037-2.81306-.27872-4.0415a8.14613,8.14613,0,0,1,2.32746-1.308,2.0601,2.0601,0,0,1,1.78923.16418c.83708.43167,1.70534.80278,2.5434,1.23266q3.90506,2.00311,7.79577,4.03409c3.05344,1.60105,6.09265,3.22924,9.14417,4.834,1.23952.65183,2.49522,1.27285,3.7943,1.93369l.93519-1.4621c-.08141-.092-.101-.13067-.13231-.1472q-3.85639-2.0385-7.71469-4.07343c-1.48093-.781-2.97006-1.54709-4.43531-2.35645a.75347.75347,0,0,1-.28576-.637c.162-.84167.40856-1.6666.60282-2.50263.21082-.90736.21222-.92278,1.124-.98408.25033-.01683.50195-.01949.753-.02,2.241-.0041,4.48218.00731,6.723-.01519a6.52021,6.52021,0,0,1,2.8402.54061,11.73529,11.73529,0,0,1,4.38248,3.19945c1.38014,1.67237,2.67245,3.42,3.95011,5.17338,1.32186,1.81407,2.587,3.66968,3.865,5.51546,1.35487,1.95687,2.69539,3.92368,4.04255,5.88588.61918.90185,1.24273,1.80069,1.858,2.70516q1.23209,1.811,2.45468,3.62848,1.37322,2.02976,2.74827,4.05826a2.48959,2.48959,0,0,0,.249.31937,1.02529,1.02529,0,0,0,1.4426.20632c.42649-.352.45146-.71512.04737-1.31871-.46871-.70014-.96423-1.38225-1.44084-2.07719q-2.0192-2.94416-4.0328-5.89212c-.62913-.91816-1.26342-1.8328-1.89457-2.74958q-1.99159-2.893-3.98323-5.78595-1.94771-2.81753-3.90927-5.62542c-.86127-1.22724-1.69961-2.47494-2.63324-3.64566A24.68436,24.68436,0,0,0,127.73067,34.79a11.27559,11.27559,0,0,0-2.50386-1.72559c-1.19518-.60263-2.48159-1.02274-3.71863-1.54536a1.24451,1.24451,0,0,1-.54546-.45864c-.62368-1.01138-1.19067-2.05823-1.82863-3.06012-.60728-.95374-1.27539-1.86889-1.9208-2.79821a31.72576,31.72576,0,0,0-4.02009-4.58575,41.84288,41.84288,0,0,0-5.99228-5.04893q-2.83678-1.87781-5.76773-3.61233A48.052,48.052,0,0,0,93.227,8.12c-2.47952-.89389-4.98055-1.74335-7.51154-2.47612A81.29823,81.29823,0,0,0,68.33543,2.74065a86.557,86.557,0,0,0-22.1446,1.30444c-3.15508.60967-6.27537,1.43415-9.37264,2.3a61.82823,61.82823,0,0,0-12.48973,5.10682A54.91343,54.91343,0,0,0,18.69,14.83275a72.6005,72.6005,0,0,0-6.0254,4.73934,29.92,29.92,0,0,0-3.82041,3.9921A63.94939,63.94939,0,0,0,4.847,29.32946a26.98722,26.98722,0,0,0-1.87443,3.88631,27.78514,27.78514,0,0,0-1.87972,7.42695,23.43658,23.43658,0,0,0,.147,7.07912A27.27562,27.27562,0,0,0,3.32592,55.07c.6719,1.35592,1.313,2.72855,2.02915,4.06075a24.85224,24.85224,0,0,0,3.912,5.39472c1.32466,1.38973,2.6432,2.79208,4.05655,4.08844a36.674,36.674,0,0,0,3.86285,3.10618c1.94282,1.34807,3.94472,2.61755,5.97388,3.833a54.98064,54.98064,0,0,0,7.80957,3.723A78.60541,78.60541,0,0,0,42.9993,82.98053a76.26247,76.26247,0,0,0,12.58247,1.87754c2.92824.16241,5.8697.08994,8.80531.1147a73.52764,73.52764,0,0,0,15.07168-1.49464,77.736,77.736,0,0,0,14.6235-4.2784,84.5,84.5,0,0,0,7.81393-3.72555A48.25279,48.25279,0,0,0,110.7454,69.318c.82478-.72266,1.60011-1.50495,2.45434-2.18979a9.8378,9.8378,0,0,1,2.11326-1.3795c1.1428-.50379,2.36306-.82935,3.53866-1.26249a.60308.60308,0,0,1,.87075.35169,13.0951,13.0951,0,0,0,3.44583,4.08119,18.94485,18.94485,0,0,0,7.4466,3.28752c.7389.18381.79716.12151.93553-.64455C131.60828,71.24142,131.64643,70.91721,131.70216,70.53579Z"/><path d="M131.70216,70.53579c-.05573.38142-.09388.70563-.15179,1.02627-.13837.76606-.19663.82836-.93553.64455a18.94485,18.94485,0,0,1-7.4466-3.28752,13.0951,13.0951,0,0,1-3.44583-4.08119.60308.60308,0,0,0-.87075-.35169c-1.1756.43314-2.39586.7587-3.53866,1.26249a9.8378,9.8378,0,0,0-2.11326,1.3795c-.85423.68484-1.62956,1.46713-2.45434,2.18979a48.25279,48.25279,0,0,1-8.84921,6.15619,84.5,84.5,0,0,1-7.81393,3.72555,77.736,77.736,0,0,1-14.6235,4.2784,73.52764,73.52764,0,0,1-15.07168,1.49464c-2.93561-.02476-5.87707.04771-8.80531-.1147A76.26247,76.26247,0,0,1,42.9993,82.98053a78.60541,78.60541,0,0,1-12.02936-3.70444,54.98064,54.98064,0,0,1-7.80957-3.723c-2.02916-1.21543-4.03106-2.48491-5.97388-3.833a36.674,36.674,0,0,1-3.86285-3.10618c-1.41335-1.29636-2.73189-2.69871-4.05655-4.08844a24.85224,24.85224,0,0,1-3.912-5.39472C4.6389,57.79856,3.99782,56.42593,3.32592,55.07a27.27562,27.27562,0,0,1-2.086-7.34817,23.43658,23.43658,0,0,1-.147-7.07912,27.78514,27.78514,0,0,1,1.87972-7.42695A26.98722,26.98722,0,0,1,4.847,29.32946a63.94939,63.94939,0,0,1,3.99712-5.76527,29.92,29.92,0,0,1,3.82041-3.9921A72.6005,72.6005,0,0,1,18.69,14.83275a54.91343,54.91343,0,0,1,5.63849-3.38088A61.82823,61.82823,0,0,1,36.81819,6.345c3.09727-.86581,6.21756-1.69029,9.37264-2.3a86.557,86.557,0,0,1,22.1446-1.30444A81.29823,81.29823,0,0,1,85.71549,5.6439c2.531.73277,5.032,1.58223,7.51154,2.47612a48.052,48.052,0,0,1,8.20616,3.83509q2.92728,1.73343,5.76773,3.61233a41.84288,41.84288,0,0,1,5.99228,5.04893,31.72576,31.72576,0,0,1,4.02009,4.58575c.64541.92932,1.31352,1.84447,1.9208,2.79821.638,1.00189,1.20495,2.04874,1.82863,3.06012a1.24451,1.24451,0,0,0,.54546.45864c1.237.52262,2.52345.94273,3.71863,1.54536A11.27559,11.27559,0,0,1,127.73067,34.79a24.68436,24.68436,0,0,1,2.60736,2.83907c.93363,1.17072,1.772,2.41842,2.63324,3.64566q1.96755,2.80364,3.90927,5.62542,1.99719,2.88912,3.98323,5.786c.63115.91678,1.26544,1.83142,1.89457,2.74958q2.01792,2.945,4.0328,5.89212c.47661.69494.97213,1.377,1.44084,2.07719.40409.60359.37912.96672-.04737,1.31871a1.02529,1.02529,0,0,1-1.4426-.20632,2.48959,2.48959,0,0,1-.249-.31937q-1.37589-2.02794-2.74827-4.05826Q142.5173,58.3256,141.29,56.51131c-.61531-.90447-1.23886-1.80331-1.858-2.70516-1.34716-1.9622-2.68768-3.929-4.04255-5.88588-1.27794-1.84578-2.54311-3.70139-3.865-5.51546-1.27766-1.75341-2.57-3.501-3.95011-5.17338a11.73529,11.73529,0,0,0-4.38248-3.19945,6.52021,6.52021,0,0,0-2.8402-.54061c-2.24083.0225-4.482.01109-6.723.01519-.251.00046-.50265.00312-.753.02-.91174.0613-.91314.07672-1.124.98408-.19426.836-.44083,1.661-.60282,2.50263a.75347.75347,0,0,0,.28576.637c1.46525.80936,2.95438,1.57543,4.43531,2.35645q3.85834,2.0348,7.71469,4.07343c.03128.01653.0509.05518.13231.1472l-.93519,1.4621c-1.29908-.66084-2.55478-1.28186-3.7943-1.93369-3.05152-1.60473-6.09073-3.23292-9.14417-4.834q-3.88689-2.03807-7.79577-4.03409c-.83806-.42988-1.70632-.801-2.5434-1.23266a2.0601,2.0601,0,0,0-1.78923-.16418,8.14613,8.14613,0,0,0-2.32746,1.308c-1.32165,1.22844-1.066,2.8156.27872,4.0415q1.57543,1.43621,3.25282,2.75969c2.27726,1.799,4.58469,3.55983,6.87923,5.337.68427.53,1.37192,1.05577,2.04942,1.59431,1.76329,1.40162,3.53374,2.79461,5.27855,4.219,1.47207,1.20171,2.98071,2.37232,4.33755,3.69574a9.38531,9.38531,0,0,1,1.56709,2.4819c.6742,1.31092,1.24424,2.67494,1.88807,4.00207a12.67294,12.67294,0,0,0,4.20955,5.16307,16.91562,16.91562,0,0,0,6.11285,2.34736C131.37113,70.468,131.50125,70.49427,131.70216,70.53579Zm-20.66172-4.72857c-1.89342-.85537-3.67382-1.62542-5.423-2.46081-1.38052-.65933-2.86224-1.152-3.90293-2.39792a3.35526,3.35526,0,0,1,.00254-4.22542c.51012-.50945.94447-1.09475,1.45514-1.69513-.61349-.4227-1.19489-.797-1.74676-1.21077-.571-.4281-1.12886-.877-1.66218-1.35094a3.44716,3.44716,0,0,1-.77592-.89975,3.70786,3.70786,0,0,1,.78945-4.39554,1.04507,1.04507,0,0,0,.13805-.26408c-1.80728-.30129-3.55656-.58342-5.30227-.88617-2.62183-.4547-5.24123-.92332-7.86149-1.38706a2.88627,2.88627,0,0,1-2.28953-3.37755c.62233-2.43766,1.04867-4.92525,1.56251-7.39075.26372-1.26539.50812-2.53579.81313-3.79132.37084-1.52641.71651-3.06667,1.22077-4.55075a3.17791,3.17791,0,0,1,3.49746-2.05843c.93805.119,1.879.22069,2.81279.367,3.05011.47773,6.10231.9448,9.14452,1.46935q3.53471.60947,7.0452,1.35634a2.58253,2.58253,0,0,1,2.132,2.657,10.2231,10.2231,0,0,1-.10951,1.38085c-.0363.31934-.1069.63478-.1836,1.07477l5.97893-.31461c-.45019-.712-.8064-1.29491-1.18192-1.86507-.65352-.9923-1.30447-1.98682-1.98262-2.96225a31.46213,31.46213,0,0,0-3.96772-4.48078,49.974,49.974,0,0,0-5.90635-4.88817,37.01976,37.01976,0,0,0-5.97052-3.60359c-2.90165-1.33752-5.78768-2.72157-8.75115-3.90914A56.70332,56.70332,0,0,0,79.198,6.62975a91.80013,91.80013,0,0,0-9.73869-1.352,93.30945,93.30945,0,0,0-17.01168.26377,86.6343,86.6343,0,0,0-13.552,2.67469,69.12447,69.12447,0,0,0-13.38814,5.357,54.85723,54.85723,0,0,0-8.7758,5.74345,37.45089,37.45089,0,0,0-3.95662,3.61394c-1.43813,1.54159-2.75318,3.20505-4.03814,4.8797A18.29544,18.29544,0,0,0,6.894,30.79406a46.618,46.618,0,0,0-2.009,4.58453,22.2099,22.2099,0,0,0-1.22949,6.811c-.158,3.74562.02411,7.43974,1.61217,10.92415.66708,1.46366,1.30972,2.94255,2.06427,4.36089a35.008,35.008,0,0,0,1.925,2.998A31.55192,31.55192,0,0,0,13.26122,65.15a38.771,38.771,0,0,0,5.91122,4.96812c1.95367,1.29609,3.91819,2.58969,5.96552,3.72666,1.89668,1.05331,3.8839,1.95627,5.87608,2.82229a68.45935,68.45935,0,0,0,13.74628,4.20159A78.23328,78.23328,0,0,0,61.6039,82.59979a95.72578,95.72578,0,0,0,18.53729-1.69906,73.96542,73.96542,0,0,0,17.99057-6.18224,48.57825,48.57825,0,0,0,7.176-4.306c.74073-.55046,1.504-1.073,2.21989-1.654C108.6883,67.81676,109.81841,66.83735,111.04044,65.80722ZM99.86534,45.01911l.044-.16056c-.19348-.14723-.38983-.29087-.58-.44228-1.24819-.99393-2.5199-1.96039-3.73326-2.99524a16.80758,16.80758,0,0,1-2.12079-2.11151,4.67007,4.67007,0,0,1,.55859-5.91155,6.09986,6.09986,0,0,1,6.95778-1.17857c2.05124,1.17838,4.18967,2.205,6.29013,3.29768.62718.32627,1.2556.65017,1.8877.97735a12.00585,12.00585,0,0,0,.48258-1.47273c.35161-1.81645.69887-3.63529.9743-5.46428.14587-.96859-.12607-1.212-1.097-1.373-4.07156-.67534-8.13832-1.38039-12.21341-2.03349-1.99872-.32033-4.0066-.60412-6.0204-.80193-1.19215-.1171-1.29535.04548-1.58082,1.1356-.75958,2.90051-1.40031,5.83224-2.08042,8.75339-.188.80751-.35308,1.62048-.52046,2.43264-.24527,1.19013-.49454,2.37962-.72059,3.57345-.18124.95714.0818,1.34638,1.01777,1.58139.13072.03282.26331.05906.396.08325,2.86352.522,5.72581,1.051,8.59148,1.56091C97.55019,44.67452,98.70948,44.83719,99.86534,45.01911Zm12.78672,13.142c.94487-.17723,1.8908-.34925,2.83325-.53851.11307-.02271.29585-.14445.29178-.21081a.59347.59347,0,0,0-.19777-.38676q-2.13234-1.71048-4.28165-3.39977-2.46871-1.94744-4.94469-3.88562c-.7888-.61428-1.57808-1.23151-2.4037-1.79372-.54308-.36982-1.19442-.7218-1.8199-.27536a7.73964,7.73964,0,0,0-1.45195,1.44156,1.09134,1.09134,0,0,0,.00358,1.35611,4.31377,4.31377,0,0,0,.86544,1.00075q2.73224,2.07134,5.51156,4.08039a22.13359,22.13359,0,0,0,2.16714,1.42585A6.97373,6.97373,0,0,0,112.65206,58.16114Zm.07715,6.10646a2.18373,2.18373,0,0,0,.29935-.02586c1.65813-.49348,3.31808-.98135,4.96772-1.50184a.54156.54156,0,0,0,.19007-.48387,7.771,7.771,0,0,0-.618-1.67749c-.30037-.52725-.51314-1.26945-1.39835-1.1126-.43631.07731-.88361.10242-1.31373.20323a8.34289,8.34289,0,0,1-6.945-1.29348c-.86743-.59847-1.78867-1.12134-2.70442-1.64544a.85616.85616,0,0,0-.69131-.08408,2.463,2.463,0,0,0-1.53077,2.01044c-.03843.61322.01628,1.26975.63528,1.56778,2.49565,1.20158,5.00828,2.36852,7.52729,3.52057A13.6647,13.6647,0,0,0,112.72921,64.2676Z"/><path class="cls-1" d="M111.04044,65.80722c-1.222,1.03013-2.35214,2.00954-3.51279,2.95129-.71594.58092-1.47916,1.1035-2.21989,1.654a48.57825,48.57825,0,0,1-7.176,4.306,73.96542,73.96542,0,0,1-17.99057,6.18224A95.72578,95.72578,0,0,1,61.6039,82.59979a78.23328,78.23328,0,0,1-16.84358-1.73117A68.45935,68.45935,0,0,1,31.014,76.667c-1.99218-.866-3.9794-1.769-5.87608-2.82229-2.04733-1.137-4.01185-2.43057-5.96552-3.72666A38.771,38.771,0,0,1,13.26122,65.15,31.55192,31.55192,0,0,1,9.257,60.47267a35.008,35.008,0,0,1-1.925-2.998c-.75455-1.41834-1.39719-2.89723-2.06427-4.36089C3.67961,49.62934,3.49755,45.93522,3.6555,42.1896a22.2099,22.2099,0,0,1,1.22949-6.811,46.618,46.618,0,0,1,2.009-4.58453,18.29544,18.29544,0,0,1,1.84292-2.98369c1.285-1.67465,2.6-3.33811,4.03814-4.8797a37.45089,37.45089,0,0,1,3.95662-3.61394,54.85723,54.85723,0,0,1,8.7758-5.74345,69.12447,69.12447,0,0,1,13.38814-5.357,86.6343,86.6343,0,0,1,13.552-2.67469,93.30945,93.30945,0,0,1,17.01168-.26377,91.80013,91.80013,0,0,1,9.73869,1.352A56.70332,56.70332,0,0,1,90.61542,9.7465c2.96347,1.18757,5.8495,2.57162,8.75115,3.90914a37.01976,37.01976,0,0,1,5.97052,3.60359,49.974,49.974,0,0,1,5.90635,4.88817,31.46213,31.46213,0,0,1,3.96772,4.48078c.67815.97543,1.3291,1.97,1.98262,2.96225.37552.57016.73173,1.153,1.18192,1.86507l-5.97893.31461c.0767-.44.1473-.75543.1836-1.07477a10.2231,10.2231,0,0,0,.10951-1.38085,2.58253,2.58253,0,0,0-2.132-2.657q-3.50829-.74626-7.0452-1.35634c-3.04221-.52455-6.09441-.99162-9.14452-1.46935-.93384-.14627-1.87474-.24794-2.81279-.367a3.17791,3.17791,0,0,0-3.49746,2.05843c-.50426,1.48408-.84993,3.02434-1.22077,4.55075-.305,1.25553-.54941,2.52593-.81313,3.79132-.51384,2.4655-.94018,4.95309-1.56251,7.39075a2.88627,2.88627,0,0,0,2.28953,3.37755c2.62026.46374,5.23966.93236,7.86149,1.38706,1.74571.30275,3.495.58488,5.30227.88617a1.04507,1.04507,0,0,1-.13805.26408,3.70786,3.70786,0,0,0-.78945,4.39554,3.44716,3.44716,0,0,0,.77592.89975c.53332.4739,1.09115.92284,1.66218,1.35094.55187.41374,1.13327.78807,1.74676,1.21077-.51067.60038-.945,1.18568-1.45514,1.69513a3.35526,3.35526,0,0,0-.00254,4.22542c1.04069,1.24587,2.52241,1.73859,3.90293,2.39792C107.36662,64.1818,109.147,64.95185,111.04044,65.80722Zm-31.29-21.05962c-.11224-5.4703-.35486-10.00292-1.90631-14.60095-.67414-1.998-1.38219-3.98472-2.09132-5.97068a41.31653,41.31653,0,0,0-3.10935-6.23551,3.20619,3.20619,0,0,0-4.52138-1.24623,2.56219,2.56219,0,0,0-1.1078,2.97825c.42175.94129.923,1.84663,1.37079,2.77667.64895,1.34777,1.36,2.67287,1.90162,4.06333A59.71077,59.71077,0,0,1,72.31118,32.392a41.226,41.226,0,0,1,1.31174,11.12117A39.70548,39.70548,0,0,1,71.9158,56.39625q-.99938,2.90863-2.12642,5.77288c-.421,1.07523-.93788,2.11463-1.44468,3.154-.41855.85843-.9654,1.66315-1.29939,2.5504a2.63151,2.63151,0,0,0-.00617,1.61716,2.83491,2.83491,0,0,0,2.47768,1.97472,2.79586,2.79586,0,0,0,2.85046-1.45225,37.6948,37.6948,0,0,0,1.98865-3.434,38.91619,38.91619,0,0,0,1.8367-4.03031c.75273-2.01268,1.47984-4.0457,2.03614-6.11882A41.74512,41.74512,0,0,0,79.75042,44.7476ZM67.1108,42.45571a34.174,34.174,0,0,0-1.02225-7.39826A33.0053,33.0053,0,0,0,63.913,28.56969q-1.40139-2.64575-2.725-5.33239c-.78891-1.60666-3.05051-1.71667-4.14153-1.09518a2.45165,2.45165,0,0,0-1.4612,2.40484,8.52057,8.52057,0,0,0,.64211,1.8498c.73744,1.53315,1.66009,2.99029,2.2642,4.57123.77283,2.02248,1.34153,4.12662,1.92482,6.21605a16.37609,16.37609,0,0,1,.38633,2.57259,30.31257,30.31257,0,0,1-.62017,11.4654,32.61412,32.61412,0,0,1-2.33422,6.73705c-.56924,1.08582-1.11622,2.1837-1.65285,3.28608a3.30044,3.30044,0,0,0-.50686,2.694,2.96334,2.96334,0,0,0,5.02528.97983,13.40938,13.40938,0,0,0,1.76378-2.54645,30.532,30.532,0,0,0,1.92-4.18012,64.82317,64.82317,0,0,0,1.91237-6.40061A36.58216,36.58216,0,0,0,67.1108,42.45571ZM54.35452,43.92277c-.0912-1.32815-.15666-2.65867-.27864-3.984a25.35892,25.35892,0,0,0-3.11227-9.481,13.64723,13.64723,0,0,0-1.47994-2.18049,2.59376,2.59376,0,0,0-1.11054-.77522,2.95232,2.95232,0,0,0-3.63594,1.07179,1.99451,1.99451,0,0,0-.31786,2.22746c.76312,1.52122,1.58494,3.0196,2.23984,4.587a21.01326,21.01326,0,0,1,1.65333,8.23423,20.65559,20.65559,0,0,1-2.01755,9.341c-.6537,1.30335-1.27394,2.62375-1.89307,3.944a1.62107,1.62107,0,0,0-.00217,1.61244,6.00994,6.00994,0,0,0,1.01722,1.23357,2.88639,2.88639,0,0,0,4.047-.29331,9.18069,9.18069,0,0,0,1.15644-1.637c.74493-1.45085,1.5014-2.90553,2.10191-4.41872A25.89025,25.89025,0,0,0,54.35452,43.92277Zm-11.93224.1752a15.97324,15.97324,0,0,0-2.97553-9.66966A8.261,8.261,0,0,0,38.031,32.93905c-1.02014-.83593-2.3545-.62816-3.56794.28508a2.52594,2.52594,0,0,0-.68456,3.13484c.335.66212.75673,1.28163,1.1564,1.90952a9.8833,9.8833,0,0,1,1.31347,5.4941,9.96128,9.96128,0,0,1-1.3097,5.55344c-.37843.59559-.76826,1.18605-1.109,1.8031A2.79013,2.79013,0,0,0,35.6138,55.075,3.00959,3.00959,0,0,0,38.944,53.89511a14.41344,14.41344,0,0,0,1.96179-3.03172A15.75232,15.75232,0,0,0,42.42228,44.098Z"/><path class="cls-1" d="M99.86534,45.01911c-1.15586-.18192-2.31515-.34459-3.46691-.54953-2.86567-.5099-5.728-1.03891-8.59148-1.56091-.13265-.02419-.26524-.05043-.396-.08325-.936-.235-1.199-.62425-1.01777-1.58139.22605-1.19383.47532-2.38332.72059-3.57345.16738-.81216.33244-1.62513.52046-2.43264.68011-2.92115,1.32084-5.85288,2.08042-8.75339.28547-1.09012.38867-1.2527,1.58082-1.1356,2.0138.19781,4.02168.4816,6.0204.80193,4.07509.6531,8.14185,1.35815,12.21341,2.03349.971.161,1.24292.40446,1.097,1.373-.27543,1.829-.62269,3.64783-.9743,5.46428a12.00585,12.00585,0,0,1-.48258,1.47273c-.6321-.32718-1.26052-.65108-1.8877-.97735-2.10046-1.09266-4.23889-2.1193-6.29013-3.29768A6.09986,6.09986,0,0,0,94.03388,33.398a4.67007,4.67007,0,0,0-.55859,5.91155A16.80758,16.80758,0,0,0,95.59608,41.421c1.21336,1.03485,2.48507,2.00131,3.73326,2.99524.19015.15141.3865.29505.58.44228Z"/><path class="cls-1" d="M112.65206,58.16114a6.97373,6.97373,0,0,1-3.42691-1.18589A22.13359,22.13359,0,0,1,107.058,55.5494q-2.77405-2.01528-5.51156-4.08039a4.31377,4.31377,0,0,1-.86544-1.00075,1.09134,1.09134,0,0,1-.00358-1.35611,7.73964,7.73964,0,0,1,1.45195-1.44156c.62548-.44644,1.27682-.09446,1.8199.27536.82562.56221,1.6149,1.17944,2.4037,1.79372q2.48081,1.932,4.94469,3.88562,2.14623,1.69305,4.28165,3.39977a.59347.59347,0,0,1,.19777.38676c.00407.06636-.17871.1881-.29178.21081C114.54286,57.81189,113.59693,57.98391,112.65206,58.16114Z"/><path class="cls-1" d="M112.72921,64.2676a13.6647,13.6647,0,0,1-1.58182-.52264c-2.519-1.152-5.03164-2.319-7.52729-3.52057-.619-.298-.67371-.95456-.63528-1.56778a2.463,2.463,0,0,1,1.53077-2.01044.85616.85616,0,0,1,.69131.08408c.91575.5241,1.837,1.047,2.70442,1.64544a8.34289,8.34289,0,0,0,6.945,1.29348c.43012-.10081.87742-.12592,1.31373-.20323.88521-.15685,1.098.58535,1.39835,1.1126a7.771,7.771,0,0,1,.618,1.67749.54156.54156,0,0,1-.19007.48387c-1.64964.52049-3.30959,1.00836-4.96772,1.50184A2.18373,2.18373,0,0,1,112.72921,64.2676Z"/><path d="M79.75042,44.7476a41.74512,41.74512,0,0,1-1.52165,11.68249c-.5563,2.07312-1.28341,4.10614-2.03614,6.11882a38.91619,38.91619,0,0,1-1.8367,4.03031,37.6948,37.6948,0,0,1-1.98865,3.434,2.79586,2.79586,0,0,1-2.85046,1.45225,2.83491,2.83491,0,0,1-2.47768-1.97472,2.63151,2.63151,0,0,1,.00617-1.61716c.334-.88725.88084-1.692,1.29939-2.5504.5068-1.0394,1.02371-2.0788,1.44468-3.154q1.12127-2.86389,2.12642-5.77288a39.70548,39.70548,0,0,0,1.70712-12.88312A41.226,41.226,0,0,0,72.31118,32.392a59.71077,59.71077,0,0,0-2.02451-5.87948c-.5416-1.39046-1.25267-2.71556-1.90162-4.06333-.44782-.93-.949-1.83538-1.37079-2.77667a2.56219,2.56219,0,0,1,1.1078-2.97825,3.20619,3.20619,0,0,1,4.52138,1.24623A41.31653,41.31653,0,0,1,75.75279,24.176c.70913,1.986,1.41718,3.97269,2.09132,5.97068C79.39556,34.74468,79.63818,39.2773,79.75042,44.7476Z"/><path d="M67.1108,42.45571a36.58216,36.58216,0,0,1-.80074,9.33606,64.82317,64.82317,0,0,1-1.91237,6.40061,30.532,30.532,0,0,1-1.92,4.18012A13.40938,13.40938,0,0,1,60.71386,64.919a2.96334,2.96334,0,0,1-5.02528-.97983,3.30044,3.30044,0,0,1,.50686-2.694c.53663-1.10238,1.08361-2.20026,1.65285-3.28608A32.61412,32.61412,0,0,0,60.18251,51.222a30.31257,30.31257,0,0,0,.62017-11.4654,16.37609,16.37609,0,0,0-.38633-2.57259c-.58329-2.08943-1.152-4.19357-1.92482-6.21605-.60411-1.58094-1.52676-3.03808-2.2642-4.57123a8.52057,8.52057,0,0,1-.64211-1.8498,2.45165,2.45165,0,0,1,1.4612-2.40484c1.091-.62149,3.35262-.51148,4.14153,1.09518q1.31958,2.68738,2.725,5.33239a33.0053,33.0053,0,0,1,2.17557,6.48776A34.174,34.174,0,0,1,67.1108,42.45571Z"/><path d="M54.35452,43.92277a25.89025,25.89025,0,0,1-1.63228,9.48188c-.60051,1.51319-1.357,2.96787-2.10191,4.41872a9.18069,9.18069,0,0,1-1.15644,1.637,2.88639,2.88639,0,0,1-4.047.29331,6.00994,6.00994,0,0,1-1.01722-1.23357,1.62107,1.62107,0,0,1,.00217-1.61244c.61913-1.32029,1.23937-2.64069,1.89307-3.944a20.65559,20.65559,0,0,0,2.01755-9.341,21.01326,21.01326,0,0,0-1.65333-8.23423c-.6549-1.56743-1.47672-3.06581-2.23984-4.587a1.99451,1.99451,0,0,1,.31786-2.22746,2.95232,2.95232,0,0,1,3.63594-1.07179,2.59376,2.59376,0,0,1,1.11054.77522,13.64723,13.64723,0,0,1,1.47994,2.18049,25.35892,25.35892,0,0,1,3.11227,9.481C54.19786,41.2641,54.26332,42.59462,54.35452,43.92277Z"/><path d="M42.42228,44.098a15.75232,15.75232,0,0,1-1.51647,6.76542A14.41344,14.41344,0,0,1,38.944,53.89511,3.00959,3.00959,0,0,1,35.6138,55.075a2.79013,2.79013,0,0,1-1.78414-3.95585c.34072-.617.73055-1.20751,1.109-1.8031a9.96128,9.96128,0,0,0,1.3097-5.55344,9.8833,9.8833,0,0,0-1.31347-5.4941c-.39967-.62789-.82139-1.2474-1.1564-1.90952a2.52594,2.52594,0,0,1,.68456-3.13484c1.21344-.91324,2.5478-1.121,3.56794-.28508a8.261,8.261,0,0,1,1.41578,1.48926A15.97324,15.97324,0,0,1,42.42228,44.098Z"/></g></g></svg>