<?xml version="1.0" encoding="utf-8"?>
<!-- Generator: Adobe Illustrator 23.0.1, SVG Export Plug-In . SVG Version: 6.00 Build 0)  -->
<svg version="1.1" id="Layer_1" xmlns="http://www.w3.org/2000/svg" xmlns:xlink="http://www.w3.org/1999/xlink" x="0px" y="0px"
	 viewBox="0 0 437 174" style="enable-background:new 0 0 437 174;" xml:space="preserve">
<style type="text/css">
	.st0{fill:#5F6368;}
	.st1{fill:#4285F4;}
	.st2{fill:#34A853;}
	.st3{fill:#FBBC04;}
	.st4{fill:#EA4335;}
</style>
<g>
	<path class="st0" d="M207.2,84.6v50.8h-16.1V10h42.7c10.3-0.2,20.2,3.7,27.7,10.9c7.5,6.7,11.7,16.4,11.5,26.4
		c0.2,10.1-4,19.8-11.5,26.6c-7.5,7.1-16.7,10.7-27.6,10.7H207.2z M207.2,25.4v43.8h27c6,0.2,11.8-2.2,15.9-6.5
		c8.5-8.2,8.6-21.7,0.4-30.2l-0.4-0.4c-4.1-4.4-9.9-6.8-15.9-6.6C234.2,25.5,207.2,25.4,207.2,25.4z M310.1,46.8
		c11.9,0,21.3,3.2,28.2,9.5c6.9,6.4,10.3,15.1,10.3,26.2v52.8h-15.4v-11.9h-0.7c-6.7,9.8-15.5,14.7-26.6,14.7
		c-9.4,0-17.4-2.8-23.7-8.4c-6.2-5.2-9.7-12.9-9.5-21c0-8.9,3.4-15.9,10.1-21.2c6.7-5.3,15.7-7.9,26.9-7.9c9.6,0,17.4,1.8,23.6,5.2
		v-3.7c0-5.5-2.4-10.7-6.6-14.2c-4.3-3.8-9.8-5.9-15.5-5.9c-9,0-16.1,3.8-21.4,11.4l-14.2-8.9C283.3,52.4,294.8,46.8,310.1,46.8
		L310.1,46.8z M289.3,109.1c0,4.2,2,8.1,5.3,10.5c3.6,2.8,8,4.3,12.5,4.2c6.8,0,13.3-2.7,18.1-7.5c5.3-5,8-10.9,8-17.7
		c-5-4-12-6-21-6c-6.5,0-12,1.6-16.4,4.7C291.5,100.5,289.3,104.4,289.3,109.1z M437,49.6l-53.8,123.6h-16.6l20-43.2l-35.4-80.3
		h17.5l25.5,61.6h0.4l24.9-61.6L437,49.6z"/>
	<path class="st1" d="M142.1,73.6c0-4.9-0.4-9.8-1.2-14.6H73v27.7h38.9c-1.6,8.9-6.8,16.9-14.4,21.9v18h23.2
		C134.3,114.1,142.1,95.6,142.1,73.6L142.1,73.6z"/>
	<path class="st2" d="M73,144c19.4,0,35.8-6.4,47.7-17.4l-23.2-18c-6.5,4.4-14.8,6.9-24.5,6.9c-18.8,0-34.7-12.7-40.4-29.7H8.7v18.6
		C20.9,128.6,45.8,144,73,144z"/>
	<path class="st3" d="M32.6,85.8c-3-8.9-3-18.6,0-27.6V39.7H8.7C-1.6,60-1.6,84,8.7,104.3L32.6,85.8z"/>
	<path class="st4" d="M73,28.5c10.3-0.2,20.2,3.7,27.6,10.8l20.5-20.5C108.1,6.5,90.9-0.2,73,0C45.8,0,20.9,15.4,8.7,39.7l23.9,18.6
		C38.3,41.2,54.2,28.5,73,28.5z"/>
</g>
</svg>
