<!-- Generated by IcoMoon.io -->
<svg version="1.1" xmlns="http://www.w3.org/2000/svg" viewBox="0 0 26 32">
<title>icon--meal</title>
          <path
            fill="#000"
            style="fill: var(--icon-primary-color, #000)"
            d="M1.6 32v-21.598h14.399v1.667c-2.215 0.133-4.247 0.812-5.995 1.903l0.054-0.031c-2.216 1.438-3.66 3.901-3.66 6.7 0 0.057 0.001 0.113 0.002 0.17l-0-0.008v8.8c0 0.001 0 0.002 0 0.002 0 0.883 0.24 1.71 0.658 2.42l-0.012-0.022zM11.201 32c-1.324-0.004-2.396-1.076-2.4-2.4v-0.801h17.6v0.8c-0.004 1.324-1.076 2.396-2.4 2.4h-0zM10.4 26.4c-0.882-0.003-1.597-0.717-1.6-1.599v-0c0.003-0.882 0.717-1.597 1.6-1.6h14.399c0.882 0.003 1.597 0.717 1.6 1.599v0c-0.003 0.882-0.717 1.597-1.599 1.6h-0zM8.801 20.8c0-4.418 3.94-6.4 8.8-6.4s8.8 1.982 8.8 6.4zM0.001 8.001l0.8-3.2h6.8v-4.8h4.4v2.4h-2v2.4h6.8l0.8 3.2z"
          ></path>
</svg>
