<!-- Generated by IcoMoon.io -->
<svg version="1.1" xmlns="http://www.w3.org/2000/svg" viewBox="0 0 22 32">
<title>icon--drink</title>
<path fill="#000" d="M3.406 32.004c-0.308-0.002-0.56-0.24-0.585-0.542l-0-0.002-1.85-21.942c-0.001-0.014-0.002-0.031-0.002-0.048 0-0.324 0.263-0.586 0.586-0.586 0 0 0.001 0 0.001 0h19.183c0 0 0.001 0 0.001 0 0.324 0 0.586 0.262 0.586 0.586 0 0.017-0.001 0.034-0.002 0.050l0-0.002-1.85 21.942c-0.027 0.303-0.278 0.54-0.585 0.544h-0zM0.062 7.079h-0.062l0.722-2.893h8.903v-4.185h3.93v2.191h-1.74v1.989h9.758l0.722 2.893z"></path>
</svg>
