<svg xmlns="http://www.w3.org/2000/svg" viewBox="0 0 206.998 156.464">
  <path fill="#000" style="fill: var(--icon-primary-color, #000)" id="icon--menu" d="M-15950.6-323.077a5,5,0,0,1-5-5v-1a5,5,0,0,1,5-5h196a5,5,0,0,1,5,5v1a5,5,0,0,1-5,5Zm57.382-28.05a8.3,8.3,0,0,1-8.28-8.281v-2.759h60.729v2.759a8.3,8.3,0,0,1-8.281,8.281Zm-33.124,0-3.355-92.768h54.471l-1.434,23.99a43.964,43.964,0,0,0-20.5,6.459,27.472,27.472,0,0,0-12.621,23.678v30.361a16.437,16.437,0,0,0,2.227,8.281Zm96.561-.745a2.415,2.415,0,0,1-2.4-2.214l-5.237-57.6a2.413,2.413,0,0,1,2.406-2.6h62.552a2.413,2.413,0,0,1,2.406,2.6l-5.237,57.6a2.415,2.415,0,0,1-2.4,2.214Zm-66.191-18.572a5.52,5.52,0,0,1-5.521-5.522,5.52,5.52,0,0,1,5.521-5.522h49.686a5.519,5.519,0,0,1,5.519,5.522,5.519,5.519,0,0,1-5.519,5.522Zm-5.525-19.325c0-15.244,13.594-22.084,30.364-22.084s30.365,6.839,30.365,22.084Zm115.488-34.209v-14.123a5.264,5.264,0,0,1,5.266-5.266,5.264,5.264,0,0,1,5.266,5.266v14.123Zm-14.8,0v-29.212a5.267,5.267,0,0,1,5.266-5.266,5.267,5.267,0,0,1,5.266,5.266v29.212Zm-15.961,0v-18.652a5.263,5.263,0,0,1,5.266-5.262,5.263,5.263,0,0,1,5.266,5.262v18.652Zm-14.8,0v-29.212a5.268,5.268,0,0,1,5.266-5.266,5.267,5.267,0,0,1,5.266,5.266v29.212Zm-103.075-25.608,2.9-11.581h24.606v-17.371h15.921v8.685h-7.235v8.685h24.606l2.891,11.581Z" transform="translate(15956.099 479.041)" stroke="rgba(0,0,0,0)" stroke-miterlimit="10" stroke-width="1"/>
</svg>
