<svg id="logo_acreburger_small" xmlns="http://www.w3.org/2000/svg" xmlns:xlink="http://www.w3.org/1999/xlink" viewBox="0 0 152.849 154">
  <defs>
    <linearGradient id="linear-gradient" x1="0.044" y1="0.77" x2="0.986" y2="0.262" gradientUnits="objectBoundingBox">
      <stop offset="0"/>
      <stop offset="1" stop-color="#2b2a29"/>
    </linearGradient>
  </defs>
  <path id="Ellipse" d="M74.294,0A74.465,74.465,0,1,1,0,74.465,74.379,74.379,0,0,1,74.294,0Z" transform="translate(4.261 5.07)" fill="#cbe510"/>
  <path id="Ellipse-2" data-name="Ellipse" d="M74.294,0A74.465,74.465,0,1,1,0,74.465,74.379,74.379,0,0,1,74.294,0Z" fill="url(#linear-gradient)"/>
  <path id="Composite_Path" data-name="Composite Path" d="M74.528,104.79c.48,0,.743-.322.655-.644L66.548,74.953c-.131-.44-.305-.661-.61-.661H60.748c-.305,0-.48.221-.61.617L51.5,104.146c-.088.322.087.644.654.644h4.971a.906.906,0,0,0,.785-.644l1.047-3.724h8.765l1.047,3.724a.906.906,0,0,0,.785.644Zm-8.547-9.906H60.7l2.66-9.019,2.616,9.019Z" transform="translate(-24.525 -34.41)" fill="#fff"/>
  <path id="Path" d="M121.018,101.975c.42-.419.463-.545.463-.754V96.35a.653.653,0,0,0-.589-.623h-5a.62.62,0,0,0-.588.623v1.336a.474.474,0,0,1-.139.312l-.645.623H109.18L108.535,98a.4.4,0,0,1-.184-.356V81.923c0-.178.046-.223.184-.4l.737-.757a.509.509,0,0,1,.322-.135h4.468a.509.509,0,0,1,.322.135l.783.757a.4.4,0,0,1,.139.312v1.158a.62.62,0,0,0,.588.623h5a.653.653,0,0,0,.589-.623V78.367a1.345,1.345,0,0,0-.463-1.09l-2.352-2.347a1.4,1.4,0,0,0-1.092-.462H106.068a1.291,1.291,0,0,0-1.1.462L102.6,77.277a1.525,1.525,0,0,0-.423,1.09v22.519a1.336,1.336,0,0,0,.423,1.09l2.368,2.347a1.535,1.535,0,0,0,1.1.461h11.465a1.543,1.543,0,0,0,1.134-.461l2.352-2.347Z" transform="translate(-47.547 -34.492)" fill="#fff"/>
  <path id="Composite_Path-2" data-name="Composite Path" d="M167.023,104.874c.438,0,.569-.3.438-.609L163.119,93.3l2.52-2.49a1.253,1.253,0,0,0,.421-1.1V78.45a1.265,1.265,0,0,0-.421-1.174l-2.394-2.389a1.557,1.557,0,0,0-1.092-.42H148.594a.6.6,0,0,0-.588.587v29.209a.644.644,0,0,0,.588.609h5a.613.613,0,0,0,.589-.609V93.642h2l4.248,10.622a.921.921,0,0,0,.756.609Zm-7.965-17.533a.35.35,0,0,1-.3.14h-4.573V80.63h4.355a.657.657,0,0,1,.566.186l.653.7c.131.14.131.233.131.466v4.241a.551.551,0,0,1-.131.373l-.7.746Z" transform="translate(-68.308 -34.491)" fill="#fff"/>
  <path id="Path-2" data-name="Path" d="M208.915,104.783a.613.613,0,0,0,.613-.587V99.209a.614.614,0,0,0-.613-.587H198.8V92.485h7.747a.586.586,0,0,0,.613-.587V86.911a.587.587,0,0,0-.613-.588H198.8V80.63h10.111a.613.613,0,0,0,.613-.587V75.056a.614.614,0,0,0-.613-.587h-15.7a.574.574,0,0,0-.588.587V104.2a.574.574,0,0,0,.588.587Z" transform="translate(-88.636 -34.492)" fill="#fff"/>
  <path id="Composite_Path-3" data-name="Composite Path" d="M61.793,159.828a.918.918,0,0,0,.275-.648v-4.77a.84.84,0,0,0-.275-.5l-.974-.972.974-1a.9.9,0,0,0,.275-.648V146.35a.711.711,0,0,0-.275-.648l-1.4-1.4a.835.835,0,0,0-.65-.275H51.867a.341.341,0,0,0-.35.349v16.77a.341.341,0,0,0,.35.349h7.877a.794.794,0,0,0,.65-.274l1.4-1.4Zm-3.814-8.934H55.19v-3.2h2.568a.208.208,0,0,1,.147.075l.416.425a.188.188,0,0,1,.073.175v2a.229.229,0,0,1-.073.175l-.342.35Zm0,6.939H55.19V154.56h2.568a.173.173,0,0,1,.147.076l.416.431a.215.215,0,0,1,.073.178V157.3a.343.343,0,0,1-.073.178l-.342.355Z" transform="translate(-24.682 -66.269)" fill="#fff"/>
  <path id="Path-3" data-name="Path" d="M93.451,159.863a.922.922,0,0,0,.25-.648V144.452a.341.341,0,0,0-.35-.349H90.4a.341.341,0,0,0-.35.349v12.866a.257.257,0,0,1-.1.2l-.356.35h-2.95l-.356-.35c-.051-.075-.076-.075-.076-.175V144.452a.341.341,0,0,0-.35-.349H82.886a.357.357,0,0,0-.35.349v14.763a.808.808,0,0,0,.275.648l1.4,1.421a.828.828,0,0,0,.65.249H91.4a.787.787,0,0,0,.65-.274l1.4-1.4Z" transform="translate(-38.786 -66.303)" fill="#fff"/>
  <path id="Composite_Path-4" data-name="Composite Path" d="M125.863,161.461c.25,0,.325-.17.25-.339l-2.549-6.111,1.5-1.472a.739.739,0,0,0,.25-.649V146.4a.758.758,0,0,0-.25-.7l-1.424-1.421a.926.926,0,0,0-.65-.25h-7.877a.357.357,0,0,0-.35.349v16.742a.371.371,0,0,0,.35.339h2.973a.352.352,0,0,0,.35-.339V155.21h1.125l2.4,5.912a.542.542,0,0,0,.45.339Zm-4.688-9.973a.2.2,0,0,1-.171.079h-2.568V147.7h2.446a.368.368,0,0,1,.318.1l.367.4c.073.079.073.132.073.263v2.4a.312.312,0,0,1-.073.211l-.391.421Z" transform="translate(-53.439 -66.27)" fill="#fff"/>
  <path id="Path-4" data-name="Path" d="M156.682,159.828a.724.724,0,0,0,.275-.5V151.9a.363.363,0,0,0-.375-.349H151.61a.344.344,0,0,0-.355.349v2.967a.36.36,0,0,0,.355.349h1.674v2.109a.31.31,0,0,1-.077.168l-.355.335h-2.967l-.33-.335a.242.242,0,0,1-.1-.192v-8.854a.369.369,0,0,1,.1-.235l.406-.443a.208.208,0,0,1,.178-.078h2.46a.186.186,0,0,1,.177.078l.431.443a.2.2,0,0,1,.077.183v.678a.366.366,0,0,0,.35.365h2.948a.389.389,0,0,0,.375-.365v-2.729a.711.711,0,0,0-.275-.648l-1.4-1.4a.714.714,0,0,0-.65-.275H148.1a.762.762,0,0,0-.65.275l-1.4,1.4a.783.783,0,0,0-.275.648v12.83a.693.693,0,0,0,.275.648l1.4,1.4a.921.921,0,0,0,.65.274h6.528a.873.873,0,0,0,.65-.274l1.4-1.4Z" transform="translate(-67.552 -66.268)" fill="#fff"/>
  <path id="Path-5" data-name="Path" d="M187.456,161.5a.357.357,0,0,0,.35-.349v-2.967a.357.357,0,0,0-.35-.349H181.68V154.56h4.426a.341.341,0,0,0,.35-.349v-2.967a.342.342,0,0,0-.35-.349H181.68v-3.2h5.776a.357.357,0,0,0,.35-.349V144.38a.357.357,0,0,0-.35-.349h-9.1a.341.341,0,0,0-.35.349v16.77a.341.341,0,0,0,.35.349Z" transform="translate(-82.258 -66.269)" fill="#fff"/>
  <path id="Composite_Path-5" data-name="Composite Path" d="M217.715,161.461c.25,0,.325-.17.25-.339l-2.549-6.111,1.5-1.472a.739.739,0,0,0,.25-.649V146.4a.758.758,0,0,0-.25-.7l-1.424-1.421a.926.926,0,0,0-.65-.25h-7.877a.357.357,0,0,0-.35.349v16.742a.371.371,0,0,0,.35.339h2.973a.352.352,0,0,0,.35-.339V155.21h1.125l2.4,5.912a.542.542,0,0,0,.45.339Zm-4.688-9.973a.2.2,0,0,1-.171.079h-2.568V147.7h2.446a.368.368,0,0,1,.318.1l.367.4c.073.079.073.132.073.263v2.4a.313.313,0,0,1-.073.211l-.391.421Z" transform="translate(-95.215 -66.27)" fill="#fff"/>
  <path id="Path-6" data-name="Path" d="M56.723,190.971h-1.25v3.373c0,.1-.01.2-.02.322a1.574,1.574,0,0,1-.059.322.638.638,0,0,1-.166.253.462.462,0,0,1-.313.1.471.471,0,0,1-.352-.137.451.451,0,0,1-.176-.331l-1.075.263a1.774,1.774,0,0,0,.557,1.092,1.609,1.609,0,0,0,1.075.361,2.028,2.028,0,0,0,.9-.166,1.3,1.3,0,0,0,.547-.439,1.63,1.63,0,0,0,.264-.624,4.54,4.54,0,0,0,.068-.741v-3.646Z" transform="translate(-25.567 -88.004)" fill="#fff"/>
  <path id="Path-7" data-name="Path" d="M70.731,190.971H69.48v3.217a1.686,1.686,0,0,1-.068.468,1.272,1.272,0,0,1-.2.361,1.01,1.01,0,0,1-.3.234.8.8,0,0,1-.371.088.841.841,0,0,1-.381-.088.865.865,0,0,1-.293-.234.923.923,0,0,1-.2-.361,1.388,1.388,0,0,1-.068-.468v-3.217h-1.25v3.364a2.621,2.621,0,0,0,.137.9,2,2,0,0,0,.42.712,1.837,1.837,0,0,0,.684.478,2.384,2.384,0,0,0,.948.166,2.416,2.416,0,0,0,.948-.166,1.92,1.92,0,0,0,.684-.478,2.127,2.127,0,0,0,.41-.712,2.617,2.617,0,0,0,.147-.9v-3.364Z" transform="translate(-31.507 -88.004)" fill="#fff"/>
  <path id="Path-8" data-name="Path" d="M83.661,191.614a1.723,1.723,0,0,0-.655-.5,1.938,1.938,0,0,0-.742-.146,2.031,2.031,0,0,0-.645.107,1.737,1.737,0,0,0-.557.322,1.582,1.582,0,0,0-.381.517,1.745,1.745,0,0,0-.147.731,1.409,1.409,0,0,0,.137.692,1.134,1.134,0,0,0,.342.419,1.624,1.624,0,0,0,.459.254l.449.195a1.276,1.276,0,0,1,.352.224.524.524,0,0,1,.137.37.477.477,0,0,1-.068.244.507.507,0,0,1-.186.166,1.059,1.059,0,0,1-.264.1,1.494,1.494,0,0,1-.293.029,1.266,1.266,0,0,1-.567-.127,1.194,1.194,0,0,1-.449-.37l-.83.975a2.318,2.318,0,0,0,.821.595,2.535,2.535,0,0,0,.957.175,3.036,3.036,0,0,0,.791-.1,2.3,2.3,0,0,0,.684-.312,1.583,1.583,0,0,0,.479-.536,1.524,1.524,0,0,0,.176-.751,1.7,1.7,0,0,0-.137-.721,1.409,1.409,0,0,0-.352-.429,2.009,2.009,0,0,0-.449-.244c-.166-.058-.322-.117-.459-.175a1.077,1.077,0,0,1-.342-.215.417.417,0,0,1-.137-.351.474.474,0,0,1,.059-.244.485.485,0,0,1,.147-.166.733.733,0,0,1,.2-.1.745.745,0,0,1,.205-.029.848.848,0,0,1,.352.088.719.719,0,0,1,.3.263l.615-.955Z" transform="translate(-37.625 -88.004)" fill="#fff"/>
  <path id="Path-9" data-name="Path" d="M93.546,196.586H94.8v-4.368h1.514v-1.248H92.022v1.248h1.524v4.368Z" transform="translate(-43.216 -88.004)" fill="#fff"/>
  <path id="Composite_Path-6" data-name="Composite Path" d="M115.127,196.586h1.71a2.914,2.914,0,0,0,1.006-.175,2.421,2.421,0,0,0,.85-.536,2.564,2.564,0,0,0,.586-.878,3.019,3.019,0,0,0,.225-1.2,3.478,3.478,0,0,0-.225-1.306,2.425,2.425,0,0,0-.606-.877,2.3,2.3,0,0,0-.9-.487,3.922,3.922,0,0,0-1.075-.156h-1.573v5.616Zm1.25-4.368h.518a1.572,1.572,0,0,1,.518.1,1.283,1.283,0,0,1,.44.273,1.527,1.527,0,0,1,.293.478,1.965,1.965,0,0,1,.107.663,2.414,2.414,0,0,1-.107.76,1.385,1.385,0,0,1-.3.5,1.117,1.117,0,0,1-.449.273,1.809,1.809,0,0,1-.567.078h-.449v-3.12Z" transform="translate(-53.754 -88.004)" fill="#fff"/>
  <path id="Path-10" data-name="Path" d="M130.033,196.586h3.82v-1.248h-2.569v-.624h2.3v-1.248h-2.3v-1.248h2.432v-1.248h-3.683v5.616Z" transform="translate(-60.566 -88.004)" fill="#fff"/>
  <path id="Path-11" data-name="Path" d="M143.734,196.586h3.419v-1.248h-2.169v-4.368h-1.25v5.616Z" transform="translate(-66.827 -88.004)" fill="#fff"/>
  <path id="Path-12" data-name="Path" d="M155.023,196.586h1.25v-5.616h-1.25v5.616Z" transform="translate(-72.036 -88.004)" fill="#fff"/>
  <path id="Path-13" data-name="Path" d="M167.382,191.868a2.685,2.685,0,0,0-.391-.419,2.036,2.036,0,0,0-.459-.273,3.043,3.043,0,0,0-.479-.156,2.552,2.552,0,0,0-.469-.049,3.348,3.348,0,0,0-1.143.195,2.847,2.847,0,0,0-.918.565,2.5,2.5,0,0,0-.615.887,2.959,2.959,0,0,0-.215,1.16,3.008,3.008,0,0,0,.215,1.17,2.5,2.5,0,0,0,.615.887,2.664,2.664,0,0,0,.918.556,3.129,3.129,0,0,0,1.143.195,2.351,2.351,0,0,0,1.075-.253,2.107,2.107,0,0,0,.85-.809l-.977-.751a1.182,1.182,0,0,1-.459.419,1.355,1.355,0,0,1-.635.146,1.43,1.43,0,0,1-.586-.117,1.476,1.476,0,0,1-.479-.322,1.459,1.459,0,0,1-.322-.5,1.58,1.58,0,0,1-.107-.624,1.628,1.628,0,0,1,.107-.614,1.459,1.459,0,0,1,.322-.5,1.547,1.547,0,0,1,.488-.331,1.574,1.574,0,0,1,.615-.117,1.353,1.353,0,0,1,.576.117,1.277,1.277,0,0,1,.43.322l.9-.79Z" transform="translate(-75.438 -88.004)" fill="#fff"/>
  <path id="Path-14" data-name="Path" d="M177.6,196.586h1.25v-5.616H177.6v5.616Z" transform="translate(-82.347 -88.004)" fill="#fff"/>
  <path id="Composite_Path-7" data-name="Composite Path" d="M185.475,194.948a2.429,2.429,0,0,0,.586.887,2.539,2.539,0,0,0,.889.556,3.042,3.042,0,0,0,1.133.195,2.99,2.99,0,0,0,1.123-.195,2.54,2.54,0,0,0,.889-.556,2.43,2.43,0,0,0,.586-.887,3.2,3.2,0,0,0,.215-1.17,3.146,3.146,0,0,0-.215-1.16,2.431,2.431,0,0,0-.586-.887,2.714,2.714,0,0,0-.889-.565,3.2,3.2,0,0,0-1.123-.195,3.251,3.251,0,0,0-1.133.195,2.714,2.714,0,0,0-.889.565,2.431,2.431,0,0,0-.586.887,3.146,3.146,0,0,0-.205,1.16,3.2,3.2,0,0,0,.205,1.17Zm1.153-1.784a1.461,1.461,0,0,1,.322-.5,1.444,1.444,0,0,1,.488-.331,1.725,1.725,0,0,1,.645-.117,1.673,1.673,0,0,1,.635.117,1.486,1.486,0,0,1,.5.331,1.438,1.438,0,0,1,.313.5,1.635,1.635,0,0,1,.117.614,1.579,1.579,0,0,1-.117.624,1.438,1.438,0,0,1-.313.5,1.463,1.463,0,0,1-.5.322,1.672,1.672,0,0,1-.635.117,1.724,1.724,0,0,1-.645-.117,1.42,1.42,0,0,1-.488-.322,1.46,1.46,0,0,1-.322-.5,1.58,1.58,0,0,1-.107-.624,1.629,1.629,0,0,1,.107-.614Z" transform="translate(-85.708 -88.004)" fill="#fff"/>
  <path id="Path-15" data-name="Path" d="M206.965,190.971h-1.25v3.217a1.686,1.686,0,0,1-.068.468,1.271,1.271,0,0,1-.2.361,1.01,1.01,0,0,1-.3.234.8.8,0,0,1-.371.088.841.841,0,0,1-.381-.088.865.865,0,0,1-.293-.234.924.924,0,0,1-.2-.361,1.389,1.389,0,0,1-.068-.468v-3.217h-1.25v3.364a2.621,2.621,0,0,0,.137.9,1.994,1.994,0,0,0,.42.712,1.837,1.837,0,0,0,.684.478,2.384,2.384,0,0,0,.948.166,2.416,2.416,0,0,0,.948-.166,1.92,1.92,0,0,0,.684-.478,2.127,2.127,0,0,0,.41-.712,2.618,2.618,0,0,0,.147-.9v-3.364Z" transform="translate(-93.649 -88.004)" fill="#fff"/>
  <path id="Path-16" data-name="Path" d="M219.9,191.614a1.723,1.723,0,0,0-.655-.5,1.938,1.938,0,0,0-.742-.146,2.031,2.031,0,0,0-.645.107,1.737,1.737,0,0,0-.557.322,1.582,1.582,0,0,0-.381.517,1.745,1.745,0,0,0-.147.731,1.409,1.409,0,0,0,.137.692,1.134,1.134,0,0,0,.342.419,1.625,1.625,0,0,0,.459.254l.449.195a1.277,1.277,0,0,1,.352.224.524.524,0,0,1,.137.37.477.477,0,0,1-.068.244.507.507,0,0,1-.186.166,1.058,1.058,0,0,1-.264.1,1.5,1.5,0,0,1-.293.029,1.266,1.266,0,0,1-.567-.127,1.194,1.194,0,0,1-.449-.37l-.83.975a2.318,2.318,0,0,0,.821.595,2.535,2.535,0,0,0,.957.175,3.036,3.036,0,0,0,.791-.1,2.3,2.3,0,0,0,.684-.312,1.583,1.583,0,0,0,.479-.536,1.524,1.524,0,0,0,.176-.751,1.7,1.7,0,0,0-.137-.721,1.408,1.408,0,0,0-.352-.429,2.009,2.009,0,0,0-.449-.244c-.166-.058-.322-.117-.459-.175a1.077,1.077,0,0,1-.342-.215.417.417,0,0,1-.137-.351.475.475,0,0,1,.059-.244.485.485,0,0,1,.147-.166.733.733,0,0,1,.2-.1.745.745,0,0,1,.205-.029.848.848,0,0,1,.352.088.718.718,0,0,1,.3.263l.615-.955Z" transform="translate(-99.779 -88.004)" fill="#fff"/>
</svg>
